<svg xmlns="http://www.w3.org/2000/svg" viewBox="0 0 600 600" width="600" height="600" preserveAspectRatio="none">
  <g fill="#f9f9f9">
    <rect x="1.5" y="1.5" width="38" height="38" rx="2" ry="2"/>
    <rect x="41.5" y="1.5" width="38" height="38" rx="2" ry="2"/>
    <rect x="81.5" y="1.5" width="38" height="38" rx="2" ry="2"/>
    <rect x="121.5" y="1.5" width="38" height="38" rx="2" ry="2"/>
    <rect x="161.5" y="1.5" width="38" height="38" rx="2" ry="2"/>
    <rect x="201.5" y="1.5" width="38" height="38" rx="2" ry="2"/>
    <rect x="241.5" y="1.5" width="38" height="38" rx="2" ry="2"/>
    <rect x="281.5" y="1.5" width="38" height="38" rx="2" ry="2"/>
    <rect x="321.5" y="1.5" width="38" height="38" rx="2" ry="2"/>
    <rect x="361.5" y="1.5" width="38" height="38" rx="2" ry="2"/>
    <rect x="401.5" y="1.5" width="38" height="38" rx="2" ry="2"/>
    <rect x="441.5" y="1.5" width="38" height="38" rx="2" ry="2"/>
    <rect x="481.5" y="1.5" width="38" height="38" rx="2" ry="2"/>
    <rect x="521.5" y="1.5" width="38" height="38" rx="2" ry="2"/>
    <rect x="561.5" y="1.5" width="38" height="38" rx="2" ry="2"/>

    <rect x="1.5" y="41.5" width="38" height="38" rx="2" ry="2"/>
    <rect x="41.5" y="41.5" width="38" height="38" rx="2" ry="2"/>
    <rect x="81.5" y="41.5" width="38" height="38" rx="2" ry="2"/>
    <rect x="121.5" y="41.5" width="38" height="38" rx="2" ry="2"/>
    <rect x="161.5" y="41.5" width="38" height="38" rx="2" ry="2"/>
    <rect x="201.5" y="41.5" width="38" height="38" rx="2" ry="2"/>
    <rect x="241.5" y="41.5" width="38" height="38" rx="2" ry="2"/>
    <rect x="281.5" y="41.5" width="38" height="38" rx="2" ry="2"/>
    <rect x="321.5" y="41.5" width="38" height="38" rx="2" ry="2"/>
    <rect x="361.5" y="41.5" width="38" height="38" rx="2" ry="2"/>
    <rect x="401.5" y="41.5" width="38" height="38" rx="2" ry="2"/>
    <rect x="441.5" y="41.5" width="38" height="38" rx="2" ry="2"/>
    <rect x="481.5" y="41.5" width="38" height="38" rx="2" ry="2"/>
    <rect x="521.5" y="41.5" width="38" height="38" rx="2" ry="2"/>
    <rect x="561.5" y="41.5" width="38" height="38" rx="2" ry="2"/>

    <rect x="1.5" y="81.5" width="38" height="38" rx="2" ry="2"/>
    <rect x="41.5" y="81.5" width="38" height="38" rx="2" ry="2"/>
    <rect x="81.5" y="81.5" width="38" height="38" rx="2" ry="2"/>
    <rect x="121.5" y="81.5" width="38" height="38" rx="2" ry="2"/>
    <rect x="161.5" y="81.5" width="38" height="38" rx="2" ry="2"/>
    <rect x="201.5" y="81.5" width="38" height="38" rx="2" ry="2"/>
    <rect x="241.5" y="81.5" width="38" height="38" rx="2" ry="2"/>
    <rect x="281.5" y="81.5" width="38" height="38" rx="2" ry="2"/>
    <rect x="321.5" y="81.5" width="38" height="38" rx="2" ry="2"/>
    <rect x="361.5" y="81.5" width="38" height="38" rx="2" ry="2"/>
    <rect x="401.5" y="81.5" width="38" height="38" rx="2" ry="2"/>
    <rect x="441.5" y="81.5" width="38" height="38" rx="2" ry="2"/>
    <rect x="481.5" y="81.5" width="38" height="38" rx="2" ry="2"/>
    <rect x="521.5" y="81.5" width="38" height="38" rx="2" ry="2"/>
    <rect x="561.5" y="81.5" width="38" height="38" rx="2" ry="2"/>

    <rect x="1.5" y="121.5" width="38" height="38" rx="2" ry="2"/>
    <rect x="41.5" y="121.5" width="38" height="38" rx="2" ry="2"/>
    <rect x="81.5" y="121.5" width="38" height="38" rx="2" ry="2"/>
    <rect x="121.5" y="121.5" width="38" height="38" rx="2" ry="2"/>
    <rect x="161.5" y="121.5" width="38" height="38" rx="2" ry="2"/>
    <rect x="201.5" y="121.5" width="38" height="38" rx="2" ry="2"/>
    <rect x="241.5" y="121.5" width="38" height="38" rx="2" ry="2"/>
    <rect x="281.5" y="121.5" width="38" height="38" rx="2" ry="2"/>
    <rect x="321.5" y="121.5" width="38" height="38" rx="2" ry="2"/>
    <rect x="361.5" y="121.5" width="38" height="38" rx="2" ry="2"/>
    <rect x="401.5" y="121.5" width="38" height="38" rx="2" ry="2"/>
    <rect x="441.5" y="121.5" width="38" height="38" rx="2" ry="2"/>
    <rect x="481.5" y="121.5" width="38" height="38" rx="2" ry="2"/>
    <rect x="521.5" y="121.5" width="38" height="38" rx="2" ry="2"/>
    <rect x="561.5" y="121.5" width="38" height="38" rx="2" ry="2"/>

    <rect x="1.5" y="161.5" width="38" height="38" rx="2" ry="2"/>
    <rect x="41.5" y="161.5" width="38" height="38" rx="2" ry="2"/>
    <rect x="81.5" y="161.5" width="38" height="38" rx="2" ry="2"/>
    <rect x="121.5" y="161.5" width="38" height="38" rx="2" ry="2"/>
    <rect x="161.5" y="161.5" width="38" height="38" rx="2" ry="2"/>
    <rect x="201.5" y="161.5" width="38" height="38" rx="2" ry="2"/>
    <rect x="241.5" y="161.5" width="38" height="38" rx="2" ry="2"/>
    <rect x="281.5" y="161.5" width="38" height="38" rx="2" ry="2"/>
    <rect x="321.5" y="161.5" width="38" height="38" rx="2" ry="2"/>
    <rect x="361.5" y="161.5" width="38" height="38" rx="2" ry="2"/>
    <rect x="401.5" y="161.5" width="38" height="38" rx="2" ry="2"/>
    <rect x="441.5" y="161.5" width="38" height="38" rx="2" ry="2"/>
    <rect x="481.5" y="161.5" width="38" height="38" rx="2" ry="2"/>
    <rect x="521.5" y="161.5" width="38" height="38" rx="2" ry="2"/>
    <rect x="561.5" y="161.5" width="38" height="38" rx="2" ry="2"/>

    <rect x="1.5" y="201.5" width="38" height="38" rx="2" ry="2"/>
    <rect x="41.5" y="201.5" width="38" height="38" rx="2" ry="2"/>
    <rect x="81.5" y="201.5" width="38" height="38" rx="2" ry="2"/>
    <rect x="121.5" y="201.5" width="38" height="38" rx="2" ry="2"/>
    <rect x="161.5" y="201.5" width="38" height="38" rx="2" ry="2"/>
    <rect x="201.5" y="201.5" width="38" height="38" rx="2" ry="2"/>
    <rect x="241.5" y="201.5" width="38" height="38" rx="2" ry="2"/>
    <rect x="281.5" y="201.5" width="38" height="38" rx="2" ry="2"/>
    <rect x="321.5" y="201.5" width="38" height="38" rx="2" ry="2"/>
    <rect x="361.5" y="201.5" width="38" height="38" rx="2" ry="2"/>
    <rect x="401.5" y="201.5" width="38" height="38" rx="2" ry="2"/>
    <rect x="441.5" y="201.5" width="38" height="38" rx="2" ry="2"/>
    <rect x="481.5" y="201.5" width="38" height="38" rx="2" ry="2"/>
    <rect x="521.5" y="201.5" width="38" height="38" rx="2" ry="2"/>
    <rect x="561.5" y="201.5" width="38" height="38" rx="2" ry="2"/>

    <rect x="1.5" y="241.5" width="38" height="38" rx="2" ry="2"/>
    <rect x="41.5" y="241.5" width="38" height="38" rx="2" ry="2"/>
    <rect x="81.5" y="241.5" width="38" height="38" rx="2" ry="2"/>
    <rect x="121.5" y="241.5" width="38" height="38" rx="2" ry="2"/>
    <rect x="161.5" y="241.5" width="38" height="38" rx="2" ry="2"/>
    <rect x="201.5" y="241.5" width="38" height="38" rx="2" ry="2"/>
    <rect x="241.5" y="241.5" width="38" height="38" rx="2" ry="2"/>
    <rect x="281.5" y="241.5" width="38" height="38" rx="2" ry="2"/>
    <rect x="321.5" y="241.5" width="38" height="38" rx="2" ry="2"/>
    <rect x="361.5" y="241.5" width="38" height="38" rx="2" ry="2"/>
    <rect x="401.5" y="241.5" width="38" height="38" rx="2" ry="2"/>
    <rect x="441.5" y="241.5" width="38" height="38" rx="2" ry="2"/>
    <rect x="481.5" y="241.5" width="38" height="38" rx="2" ry="2"/>
    <rect x="521.5" y="241.5" width="38" height="38" rx="2" ry="2"/>
    <rect x="561.5" y="241.5" width="38" height="38" rx="2" ry="2"/>

    <rect x="1.5" y="281.5" width="38" height="38" rx="2" ry="2"/>
    <rect x="41.5" y="281.5" width="38" height="38" rx="2" ry="2"/>
    <rect x="81.5" y="281.5" width="38" height="38" rx="2" ry="2"/>
    <rect x="121.5" y="281.5" width="38" height="38" rx="2" ry="2"/>
    <rect x="161.5" y="281.5" width="38" height="38" rx="2" ry="2"/>
    <rect x="201.5" y="281.5" width="38" height="38" rx="2" ry="2"/>
    <rect x="241.5" y="281.5" width="38" height="38" rx="2" ry="2"/>
    <rect x="281.5" y="281.5" width="38" height="38" rx="2" ry="2"/>
    <rect x="321.5" y="281.5" width="38" height="38" rx="2" ry="2"/>
    <rect x="361.5" y="281.5" width="38" height="38" rx="2" ry="2"/>
    <rect x="401.5" y="281.5" width="38" height="38" rx="2" ry="2"/>
    <rect x="441.5" y="281.5" width="38" height="38" rx="2" ry="2"/>
    <rect x="481.5" y="281.5" width="38" height="38" rx="2" ry="2"/>
    <rect x="521.5" y="281.5" width="38" height="38" rx="2" ry="2"/>
    <rect x="561.5" y="281.5" width="38" height="38" rx="2" ry="2"/>

    <rect x="1.5" y="321.5" width="38" height="38" rx="2" ry="2"/>
    <rect x="41.5" y="321.5" width="38" height="38" rx="2" ry="2"/>
    <rect x="81.5" y="321.5" width="38" height="38" rx="2" ry="2"/>
    <rect x="121.5" y="321.5" width="38" height="38" rx="2" ry="2"/>
    <rect x="161.5" y="321.5" width="38" height="38" rx="2" ry="2"/>
    <rect x="201.5" y="321.5" width="38" height="38" rx="2" ry="2"/>
    <rect x="241.5" y="321.5" width="38" height="38" rx="2" ry="2"/>
    <rect x="281.5" y="321.5" width="38" height="38" rx="2" ry="2"/>
    <rect x="321.5" y="321.5" width="38" height="38" rx="2" ry="2"/>
    <rect x="361.5" y="321.5" width="38" height="38" rx="2" ry="2"/>
    <rect x="401.5" y="321.5" width="38" height="38" rx="2" ry="2"/>
    <rect x="441.5" y="321.5" width="38" height="38" rx="2" ry="2"/>
    <rect x="481.5" y="321.5" width="38" height="38" rx="2" ry="2"/>
    <rect x="521.5" y="321.5" width="38" height="38" rx="2" ry="2"/>
    <rect x="561.5" y="321.5" width="38" height="38" rx="2" ry="2"/>

    <rect x="1.5" y="361.5" width="38" height="38" rx="2" ry="2"/>
    <rect x="41.5" y="361.5" width="38" height="38" rx="2" ry="2"/>
    <rect x="81.5" y="361.5" width="38" height="38" rx="2" ry="2"/>
    <rect x="121.5" y="361.5" width="38" height="38" rx="2" ry="2"/>
    <rect x="161.5" y="361.5" width="38" height="38" rx="2" ry="2"/>
    <rect x="201.5" y="361.5" width="38" height="38" rx="2" ry="2"/>
    <rect x="241.5" y="361.5" width="38" height="38" rx="2" ry="2"/>
    <rect x="281.5" y="361.5" width="38" height="38" rx="2" ry="2"/>
    <rect x="321.5" y="361.5" width="38" height="38" rx="2" ry="2"/>
    <rect x="361.5" y="361.5" width="38" height="38" rx="2" ry="2"/>
    <rect x="401.5" y="361.5" width="38" height="38" rx="2" ry="2"/>
    <rect x="441.5" y="361.5" width="38" height="38" rx="2" ry="2"/>
    <rect x="481.5" y="361.5" width="38" height="38" rx="2" ry="2"/>
    <rect x="521.5" y="361.5" width="38" height="38" rx="2" ry="2"/>
    <rect x="561.5" y="361.5" width="38" height="38" rx="2" ry="2"/>

    <rect x="1.5" y="401.5" width="38" height="38" rx="2" ry="2"/>
    <rect x="41.5" y="401.5" width="38" height="38" rx="2" ry="2"/>
    <rect x="81.5" y="401.5" width="38" height="38" rx="2" ry="2"/>
    <rect x="121.5" y="401.5" width="38" height="38" rx="2" ry="2"/>
    <rect x="161.5" y="401.5" width="38" height="38" rx="2" ry="2"/>
    <rect x="201.5" y="401.5" width="38" height="38" rx="2" ry="2"/>
    <rect x="241.5" y="401.5" width="38" height="38" rx="2" ry="2"/>
    <rect x="281.5" y="401.5" width="38" height="38" rx="2" ry="2"/>
    <rect x="321.5" y="401.5" width="38" height="38" rx="2" ry="2"/>
    <rect x="361.5" y="401.5" width="38" height="38" rx="2" ry="2"/>
    <rect x="401.5" y="401.5" width="38" height="38" rx="2" ry="2"/>
    <rect x="441.5" y="401.5" width="38" height="38" rx="2" ry="2"/>
    <rect x="481.5" y="401.5" width="38" height="38" rx="2" ry="2"/>
    <rect x="521.5" y="401.5" width="38" height="38" rx="2" ry="2"/>
    <rect x="561.5" y="401.5" width="38" height="38" rx="2" ry="2"/>

    <rect x="1.5" y="441.5" width="38" height="38" rx="2" ry="2"/>
    <rect x="41.5" y="441.5" width="38" height="38" rx="2" ry="2"/>
    <rect x="81.5" y="441.5" width="38" height="38" rx="2" ry="2"/>
    <rect x="121.5" y="441.5" width="38" height="38" rx="2" ry="2"/>
    <rect x="161.5" y="441.5" width="38" height="38" rx="2" ry="2"/>
    <rect x="201.5" y="441.5" width="38" height="38" rx="2" ry="2"/>
    <rect x="241.5" y="441.5" width="38" height="38" rx="2" ry="2"/>
    <rect x="281.5" y="441.5" width="38" height="38" rx="2" ry="2"/>
    <rect x="321.5" y="441.5" width="38" height="38" rx="2" ry="2"/>
    <rect x="361.5" y="441.5" width="38" height="38" rx="2" ry="2"/>
    <rect x="401.5" y="441.5" width="38" height="38" rx="2" ry="2"/>
    <rect x="441.5" y="441.5" width="38" height="38" rx="2" ry="2"/>
    <rect x="481.5" y="441.5" width="38" height="38" rx="2" ry="2"/>
    <rect x="521.5" y="441.5" width="38" height="38" rx="2" ry="2"/>
    <rect x="561.5" y="441.5" width="38" height="38" rx="2" ry="2"/>

    <rect x="1.5" y="481.5" width="38" height="38" rx="2" ry="2"/>
    <rect x="41.5" y="481.5" width="38" height="38" rx="2" ry="2"/>
    <rect x="81.5" y="481.5" width="38" height="38" rx="2" ry="2"/>
    <rect x="121.5" y="481.5" width="38" height="38" rx="2" ry="2"/>
    <rect x="161.5" y="481.5" width="38" height="38" rx="2" ry="2"/>
    <rect x="201.5" y="481.5" width="38" height="38" rx="2" ry="2"/>
    <rect x="241.5" y="481.5" width="38" height="38" rx="2" ry="2"/>
    <rect x="281.5" y="481.5" width="38" height="38" rx="2" ry="2"/>
    <rect x="321.5" y="481.5" width="38" height="38" rx="2" ry="2"/>
    <rect x="361.5" y="481.5" width="38" height="38" rx="2" ry="2"/>
    <rect x="401.5" y="481.5" width="38" height="38" rx="2" ry="2"/>
    <rect x="441.5" y="481.5" width="38" height="38" rx="2" ry="2"/>
    <rect x="481.5" y="481.5" width="38" height="38" rx="2" ry="2"/>
    <rect x="521.5" y="481.5" width="38" height="38" rx="2" ry="2"/>
    <rect x="561.5" y="481.5" width="38" height="38" rx="2" ry="2"/>

    <rect x="1.5" y="521.5" width="38" height="38" rx="2" ry="2"/>
    <rect x="41.5" y="521.5" width="38" height="38" rx="2" ry="2"/>
    <rect x="81.5" y="521.5" width="38" height="38" rx="2" ry="2"/>
    <rect x="121.5" y="521.5" width="38" height="38" rx="2" ry="2"/>
    <rect x="161.5" y="521.5" width="38" height="38" rx="2" ry="2"/>
    <rect x="201.5" y="521.5" width="38" height="38" rx="2" ry="2"/>
    <rect x="241.5" y="521.5" width="38" height="38" rx="2" ry="2"/>
    <rect x="281.5" y="521.5" width="38" height="38" rx="2" ry="2"/>
    <rect x="321.5" y="521.5" width="38" height="38" rx="2" ry="2"/>
    <rect x="361.5" y="521.5" width="38" height="38" rx="2" ry="2"/>
    <rect x="401.5" y="521.5" width="38" height="38" rx="2" ry="2"/>
    <rect x="441.5" y="521.5" width="38" height="38" rx="2" ry="2"/>
    <rect x="481.5" y="521.5" width="38" height="38" rx="2" ry="2"/>
    <rect x="521.5" y="521.5" width="38" height="38" rx="2" ry="2"/>
    <rect x="561.5" y="521.5" width="38" height="38" rx="2" ry="2"/>

    <rect x="1.5" y="561.5" width="38" height="38" rx="2" ry="2"/>
    <rect x="41.5" y="561.5" width="38" height="38" rx="2" ry="2"/>
    <rect x="81.5" y="561.5" width="38" height="38" rx="2" ry="2"/>
    <rect x="121.5" y="561.5" width="38" height="38" rx="2" ry="2"/>
    <rect x="161.5" y="561.5" width="38" height="38" rx="2" ry="2"/>
    <rect x="201.5" y="561.5" width="38" height="38" rx="2" ry="2"/>
    <rect x="241.5" y="561.5" width="38" height="38" rx="2" ry="2"/>
    <rect x="281.5" y="561.5" width="38" height="38" rx="2" ry="2"/>
    <rect x="321.5" y="561.5" width="38" height="38" rx="2" ry="2"/>
    <rect x="361.5" y="561.5" width="38" height="38" rx="2" ry="2"/>
    <rect x="401.5" y="561.5" width="38" height="38" rx="2" ry="2"/>
    <rect x="441.5" y="561.5" width="38" height="38" rx="2" ry="2"/>
    <rect x="481.5" y="561.5" width="38" height="38" rx="2" ry="2"/>
    <rect x="521.5" y="561.5" width="38" height="38" rx="2" ry="2"/>
    <rect x="561.5" y="561.5" width="38" height="38" rx="2" ry="2"/>
  </g>
</svg>